<?xml version="1.0" encoding="UTF-8" standalone="no" ?>
<!DOCTYPE svg PUBLIC "-//W3C//DTD SVG 1.1//EN" "http://www.w3.org/Graphics/SVG/1.1/DTD/svg11.dtd">
<svg xmlns="http://www.w3.org/2000/svg" xmlns:xlink="http://www.w3.org/1999/xlink" version="1.1" width="1080" height="1080" viewBox="0 0 1080 1080" xml:space="preserve">
<desc>Created with Fabric.js 4.2.0</desc>
<defs>
</defs>
<rect x="0" y="0" width="100%" height="100%" fill="transparent"></rect>
<g transform="matrix(0 0 0 0 0 0)" id="ee66d267-3cfc-48b4-8e2f-af9832f5bbb6"  >
</g>
<g transform="matrix(1 0 0 1 540 540)" id="0d5bec7f-42fc-4c85-b986-5fae4e46f235"  >
<rect style="stroke: none; stroke-width: 1; stroke-dasharray: none; stroke-linecap: butt; stroke-dashoffset: 0; stroke-linejoin: miter; stroke-miterlimit: 4; fill: rgb(255,255,255); fill-opacity: 0; fill-rule: nonzero; opacity: 1;" vector-effect="non-scaling-stroke"  x="-540" y="-540" rx="0" ry="0" width="1080" height="1080" />
</g>
<g transform="matrix(0.84 0 0 0.84 540 427.13)"  >
<g style="" vector-effect="non-scaling-stroke"   >
		<g transform="matrix(1 0 0 1 89.86 95.4)"  >
<path style="stroke: none; stroke-width: 1; stroke-dasharray: none; stroke-linecap: butt; stroke-dashoffset: 0; stroke-linejoin: miter; stroke-miterlimit: 4; fill: rgb(255,255,255); fill-rule: nonzero; opacity: 1;" vector-effect="non-scaling-stroke"  transform=" translate(-345.86, -351.4)" d="M 353.001 344.115 C 349.056 340.25 342.72499999999997 340.315 338.859 344.259 L 338.575 344.54900000000004 C 334.71 348.494 334.775 354.82500000000005 338.71999999999997 358.69100000000003 C 340.666 360.598 343.193 361.54800000000006 345.71799999999996 361.54800000000006 C 348.311 361.54800000000006 350.90299999999996 360.5450000000001 352.86199999999997 358.5470000000001 L 353.14599999999996 358.25700000000006 C 357.011 354.312 356.946 347.981 353.001 344.115 z" stroke-linecap="round" />
</g>
		<g transform="matrix(1 0 0 1 168 -6.72)"  >
<path style="stroke: none; stroke-width: 1; stroke-dasharray: none; stroke-linecap: butt; stroke-dashoffset: 0; stroke-linejoin: miter; stroke-miterlimit: 4; fill: rgb(255,255,255); fill-rule: nonzero; opacity: 1;" vector-effect="non-scaling-stroke"  transform=" translate(-424, -249.28)" d="M 460.574 239.276 L 434 239.276 L 434 212.702 C 434 207.179 429.523 202.702 424 202.702 C 418.477 202.702 414 207.179 414 212.702 L 414 239.276 L 387.426 239.276 C 381.90299999999996 239.276 377.426 243.75300000000001 377.426 249.276 C 377.426 254.799 381.90299999999996 259.276 387.426 259.276 L 414 259.276 L 414 285.85 C 414 291.37300000000005 418.477 295.85 424 295.85 C 429.523 295.85 434 291.37300000000005 434 285.85 L 434 259.276 L 460.574 259.276 C 466.09700000000004 259.276 470.574 254.799 470.574 249.276 C 470.574 243.75300000000001 466.097 239.276 460.574 239.276 z" stroke-linecap="round" />
</g>
		<g transform="matrix(1 0 0 1 0 0)"  >
<path style="stroke: none; stroke-width: 1; stroke-dasharray: none; stroke-linecap: butt; stroke-dashoffset: 0; stroke-linejoin: miter; stroke-miterlimit: 4; fill: rgb(255,255,255); fill-rule: nonzero; opacity: 1;" vector-effect="non-scaling-stroke"  transform=" translate(-256, -256)" d="M 456.694 167.577 C 447.35400000000004 98.547 389.646 46.899 321.149 46.899 C 286.572 46.899 254.227 59.788 229 83.41300000000001 C 203.772 59.78800000000001 171.427 46.89900000000001 136.851 46.89900000000001 C 61.391 46.899 0 109.752 0 187.009 C 0 202.273 4.453 219.38199999999998 13.312 238.26799999999997 L 10 238.26799999999997 C 4.477 238.26799999999997 0 242.74499999999998 0 248.26799999999997 C 0 253.79099999999997 4.477 258.268 10 258.268 L 23.962 258.268 C 42.638999999999996 289.888 72.175 325.84499999999997 112.449 365.89099999999996 C 167.029 420.162 222.373 462.621 222.926 463.044 C 224.718 464.41499999999996 226.85899999999998 465.09999999999997 229 465.09999999999997 C 231.14100000000002 465.09999999999997 233.281 464.41499999999996 235.074 463.044 C 235.496 462.721 277.824 430.263 324.732 386.037 C 328.75100000000003 382.248 328.937 375.919 325.148 371.90099999999995 C 321.36 367.883 315.031 367.69599999999997 311.012 371.48499999999996 C 275.238 405.21399999999994 242.211 431.95699999999994 229.001 442.405 C 213.303 429.98499999999996 169.601 394.532 126.408 351.567 C 91.828 317.168 65.356 285.82 47.459 258.26800000000003 L 136.985 258.26800000000003 C 141.44600000000003 258.26800000000003 145.36700000000002 255.31300000000002 146.597 251.02600000000004 L 164.06900000000002 190.12400000000002 L 212.45300000000003 345.14200000000005 C 213.75700000000003 349.31800000000004 217.62400000000002 352.16300000000007 221.99900000000002 352.16300000000007 C 226.37400000000002 352.16300000000007 230.241 349.31800000000004 231.544 345.14200000000005 L 258.339 259.26900000000006 L 302.983 259.26900000000006 C 308.50600000000003 259.26900000000006 312.983 254.79200000000006 312.983 249.26900000000006 C 312.983 243.74600000000007 308.50600000000003 239.26900000000006 302.983 239.26900000000006 L 250.984 239.26900000000006 C 246.609 239.26900000000006 242.741 242.11300000000006 241.43800000000002 246.29000000000005 L 221.996 308.595 L 173.21 152.289 C 171.894 148.07199999999997 167.976 145.208 163.548 145.26899999999998 C 159.131 145.31999999999996 155.27 148.26399999999998 154.051 152.51099999999997 L 129.44799999999998 238.26899999999995 L 35.624 238.26899999999995 C 25.287 218.753 20 201.552 20 187.009 C 20 120.77999999999999 72.419 66.89899999999999 136.851 66.89899999999999 C 169.235 66.89899999999999 199.351 80.21099999999998 221.65 104.38099999999999 C 223.544 106.43299999999999 226.208 107.59999999999998 229 107.59999999999998 C 231.792 107.59999999999998 234.457 106.43299999999998 236.35 104.38099999999999 C 258.649 80.21099999999998 288.765 66.89899999999999 321.149 66.89899999999999 C 376.856 66.89899999999999 424.217 107.07299999999998 435.474 162.024 C 431.717 161.533 427.888 161.276 423.99899999999997 161.276 C 375.47599999999994 161.276 335.99899999999997 200.75300000000001 335.99899999999997 249.276 C 335.99899999999997 297.799 375.47599999999994 337.276 423.99899999999997 337.276 C 472.522 337.276 511.99899999999997 297.79900000000004 511.99899999999997 249.276 C 512 212.3 489.075 180.582 456.694 167.577 z M 424 317.276 C 386.505 317.276 356 286.771 356 249.276 C 356 211.781 386.505 181.276 424 181.276 C 461.495 181.276 492 211.781 492 249.276 C 492 286.771 461.495 317.276 424 317.276 z" stroke-linecap="round" />
</g>
</g>
</g>
<g transform="matrix(1 0 0 1 540 689.77)" style="" id="e9e70c14-0adc-4c78-8f0a-5c763de3ce2d"  >
		<text xml:space="preserve" font-family="Pacifico" font-size="105" font-style="normal" font-weight="900" style="stroke: none; stroke-width: 1; stroke-dasharray: none; stroke-linecap: butt; stroke-dashoffset: 0; stroke-linejoin: miter; stroke-miterlimit: 4; fill: rgb(255,255,255); fill-rule: nonzero; opacity: 1; white-space: pre;" ><tspan x="-261.24" y="32.98" >Healthcare</tspan></text>
</g>
</svg>