<?xml version="1.0" standalone="no"?>
<!DOCTYPE svg PUBLIC "-//W3C//DTD SVG 20010904//EN"
 "http://www.w3.org/TR/2001/REC-SVG-20010904/DTD/svg10.dtd">
<svg version="1.0" xmlns="http://www.w3.org/2000/svg"
 width="512.000000pt" height="512.000000pt" viewBox="0 0 512.000000 512.000000"
 preserveAspectRatio="xMidYMid meet">

<g transform="translate(0.000000,512.000000) scale(0.100000,-0.100000)"
fill="#8C1AE9" stroke="none">
<path d="M1360 4415 c-295 -54 -567 -238 -749 -507 -49 -74 -118 -224 -145
-319 -82 -288 -46 -635 99 -954 19 -42 35 -78 35 -81 0 -2 -124 -4 -275 -4
l-276 0 -24 -25 c-32 -31 -32 -66 -1 -102 l24 -28 325 -3 325 -3 37 -57 c241
-364 664 -793 1180 -1198 258 -203 560 -404 650 -434 32 -10 40 -9 92 21 187
104 583 388 832 596 438 365 802 763 991 1083 l53 90 273 0 273 0 20 26 c27
35 26 57 -3 91 l-24 28 -236 3 -235 3 21 52 c124 307 149 625 72 897 -31 109
-119 285 -186 374 -189 251 -456 414 -747 457 -126 18 -340 7 -469 -26 -177
-43 -438 -154 -611 -258 -52 -31 -97 -57 -101 -57 -4 0 -45 23 -91 51 -232
140 -499 245 -723 284 -108 18 -303 18 -406 0z m391 -160 c215 -37 492 -153
727 -304 46 -30 91 -51 106 -51 17 0 61 22 110 54 169 112 461 242 643 288 75
19 114 23 263 22 161 0 182 -3 264 -28 276 -84 496 -272 621 -531 138 -283
133 -607 -13 -965 l-38 -95 -242 -3 -241 -2 -75 127 c-130 224 -141 240 -170
247 -47 12 -77 -14 -165 -142 -47 -67 -88 -119 -92 -115 -3 5 -66 202 -138
438 -73 237 -140 438 -149 447 -9 10 -31 20 -48 24 -69 14 -62 34 -309 -820
-124 -429 -227 -782 -230 -784 -2 -3 -8 4 -12 14 -103 275 -488 1243 -500
1256 -19 21 -71 24 -96 6 -10 -7 -104 -184 -211 -393 l-194 -380 -391 -3 -392
-2 -44 92 c-210 448 -201 851 28 1193 60 90 210 232 305 289 87 52 241 109
332 125 87 14 260 12 351 -4z m1479 -1348 c65 -208 125 -386 135 -397 19 -21
65 -26 94 -11 10 6 59 71 110 145 50 74 96 138 101 141 5 3 47 -59 94 -139 47
-79 92 -146 101 -150 9 -3 120 -6 246 -6 l230 0 -25 -42 c-230 -388 -762 -912
-1361 -1339 -143 -102 -362 -249 -371 -249 -11 0 -218 139 -359 240 -166 119
-355 266 -520 405 -153 128 -502 473 -601 595 -83 100 -214 274 -214 283 0 3
166 7 370 9 331 3 371 5 386 20 10 9 92 163 184 342 l166 325 253 -649 c140
-358 261 -659 269 -671 37 -54 110 -43 135 19 8 21 113 374 233 786 120 411
220 742 223 735 2 -8 57 -184 121 -392z"/>
</g>
</svg>
